<?xml version="1.0" encoding="UTF-8"?>
<svg id="Layer_1" xmlns="http://www.w3.org/2000/svg" xmlns:xlink="http://www.w3.org/1999/xlink" version="1.1" viewBox="0 0 231.9 95">
  <!-- Generator: Adobe Illustrator 29.2.1, SVG Export Plug-In . SVG Version: 2.1.0 Build 116)  -->
  <defs>
    <style>
      .st0 {
        fill: none;
      }

      .st1 {
        fill: #ff6d00;
      }

      .st2 {
        clip-path: url(#clippath-1);
      }

      .st3 {
        fill: #eb641b;
      }

      .st4 {
        clip-path: url(#clippath);
      }
    </style>
    <clipPath id="clippath">
      <rect class="st0" x="182.3" y="26.8" width="49.6" height="45.6"/>
    </clipPath>
    <clipPath id="clippath-1">
      <rect class="st0" x="0" y="27.4" width="49.6" height="45"/>
    </clipPath>
  </defs>
  <g class="st4">
    <path class="st3" d="M197,56.7h0c0,.1-.1.2-.2.3h0c0,.1-.2.2-.3.3h0c0,0-.2,0-.2,0h0s-13.7,1.8-13.7,1.8c9.1,3.5,22.7,9.1,30.8,13.3,1.1-4.1,1.1-15.6.9-23.1,0-.4.2-.8.6-1,4-1.9,14-7.2,17-10.4-7.4-3.9-14.9-7.4-22.7-10.6l-12.2,29.4"/>
  </g>
  <path class="st3" d="M180.6,51.7l-1.1,5.7,12.4-1.6c-3.7-1.5-7.5-2.8-11.3-4.1"/>
  <g class="st2">
    <path class="st3" d="M35.5,57.3c-.1,0-.2,0-.3,0-.4,0-.8-.2-1-.7l-12.1-29.2c-7.6,3.1-15,6.6-22.1,10.4,3,3.3,13,8.5,17,10.4.4.2.6.6.6,1-.2,7.5-.2,19.1.9,23.1,8.2-4.2,21.7-9.8,30.8-13.3l-13.7-1.7h-.2"/>
  </g>
  <path class="st3" d="M39.5,55.7l12.9,1.6-1.1-5.8c-3.9,1.3-7.9,2.7-11.8,4.2"/>
  <path class="st3" d="M77,17.5c-1.5.3-2.2.4-3.7.8-.3.3-.4.4-.7.7.7,3.4,1.1,5.1,1.9,8.5.4.2.6.3.9.5,1.4-.3,2.1-.4,3.5-.7.3-.3.4-.5.7-.8-.7-3.4-1-5.1-1.6-8.5-.4-.2-.6-.3-.9-.4ZM115.6,0C82.9,0,51,6.3,20.8,18.7l15,36.2c25.5-10.4,52.3-15.7,79.9-15.7s54.4,5.3,79.9,15.7l15-36.2C180.3,6.3,148.3,0,115.6,0ZM64,35.8c-3.1.9-4.6,1.3-7.6,2.3-2.2-.8-3.4-1.2-5.6-2-1.7-4.6-2.5-6.9-4.1-11.5,1.3-2,2-3,3.4-5,3.5-1.2,5.2-1.7,8.7-2.7,2,.8,3,1.1,5,1.9.4,1.4.6,2.1.9,3.6-2.2.6-3.3.9-5.5,1.5-.5-.7-.7-1.1-1.2-1.8-1.6.5-2.4.7-4.1,1.3-.3.4-.4.5-.7.9,1.1,3.3,1.6,4.9,2.7,8.2.4.1.6.2,1,.4,1.5-.5,2.3-.7,3.8-1.2,0-.8,0-1.3,0-2.1,2.1-.6,3.2-.9,5.3-1.5.4,1.4.5,2.1.9,3.4-1,1.4-2.1,2.8-3.1,4.3ZM82.1,31.5c-3.2.6-4.8.9-8,1.6-2-1-3-1.5-5-2.4-1.2-4.9-1.9-7.4-3.1-12.3,1.4-1.8,2.2-2.6,3.6-4.4,3.6-.8,5.5-1.2,9.1-1.9,2,1,3.1,1.5,5.1,2.6.8,5,1.2,7.5,2,12.5-1.3,1.4-2.5,2.8-3.7,4.2ZM88.3,30.5c-.3-1.7-.4-2.5-.6-4.2.8-.4,1.3-.5,2.1-.9-.5-3.9-.8-5.9-1.3-9.8-1,0-1.4-.1-2.4-.2-.3-1.7-.4-2.5-.6-4.2,4.6-.7,6.9-1,11.5-1.4.2,1.7.2,2.6.4,4.3-1,.3-1.5.5-2.5.8.4,3.9.6,5.9,1,9.9,1.9-.2,2.9-.3,4.8-.4.1-1.1.2-1.6.4-2.7,1.7-.1,2.6-.2,4.4-.3.2,3,.2,4.5.4,7.4-7,.4-10.5.7-17.4,1.8ZM124.4,28.6c-7-.3-10.5-.3-17.5,0,0-1.7-.1-2.5-.2-4.2.9-.3,1.3-.4,2.2-.7-.1-4-.2-5.9-.4-9.9-.9-.2-1.4-.3-2.3-.5,0-1.7-.1-2.6-.2-4.3,4.6-.2,6.9-.3,11.5-.2,0,1.7,0,2.6,0,4.3-1,.2-1.6.3-2.6.6,0,4,0,6,0,9.9,1.9,0,2.9,0,4.8,0,.3-1.1.4-1.6.6-2.6,1.7,0,2.6,0,4.4.1-.1,3-.2,4.5-.3,7.5ZM139.7,18.3c-.2,1.3-.2,2-.4,3.3-2-.2-3-.3-5-.5-.1,1.4-.2,2-.3,3.4,1.9.2,2.9.3,4.9.5.3-.8.5-1.2.8-2,1.7.2,2.6.3,4.3.6-.4,2.7-.6,4.1-1,6.8-7-1-10.5-1.3-17.5-1.7,0-1.7.1-2.5.2-4.2.9-.2,1.3-.3,2.2-.4.2-4,.4-5.9.6-9.9-.9-.3-1.4-.4-2.3-.7,0-1.7.1-2.6.2-4.3,7.7.4,11.6.8,19.2,1.9-.4,2.7-.6,4.1-1,6.8-1.8-.3-2.7-.4-4.4-.6-.1-.8-.2-1.3-.4-2.1-2-.2-3.1-.3-5.1-.5-.1,1.3-.2,1.9-.3,3.1,2,.2,3,.3,5,.5ZM157.1,32.9c0-.6-.1-1-.2-1.6-.9.4-1.3.7-2.2,1.1-2.1-.4-3.1-.6-5.2-1-1.5-1.8-2.3-2.7-3.9-4.5.7-4.8,1.1-7.2,1.9-12.1,2.1-1.1,3.2-1.7,5.4-2.8,3.7.7,5.5,1,9.2,1.8,1.4,1.6,2.1,2.4,3.4,4.1-.4,1.4-.5,2.1-.9,3.6-2.2-.5-3.3-.8-5.5-1.3,0-.8,0-1.3-.2-2.1-1.8-.4-2.7-.6-4.5-.9-.4.2-.6.3-1,.5-.6,3.4-.9,5.1-1.6,8.5.3.3.4.5.7.8,1.3.3,2,.4,3.3.7.4-.2.6-.3,1-.5.2-1,.3-1.6.6-2.6-1.1-.2-1.6-.3-2.7-.6.3-1.3.4-2,.7-3.3,3.6.7,5.3,1.1,8.9,2-1.1,4.5-1.7,6.7-2.8,11.2-1.7-.4-2.6-.6-4.4-1ZM184.6,27.7c-1.7-.6-2.6-.9-4.3-1.5,0-.9,0-1.3,0-2.1-2-.7-3-1-5-1.6-.4,1.2-.5,1.8-.9,3,2,.6,2.9.9,4.9,1.5-.4,1.3-.6,1.9-1.1,3.2-1.9-.6-2.9-.9-4.8-1.5-.4,1.3-.6,2-1,3.3,1.9.6,2.8.9,4.7,1.5.5-.7.7-1,1.2-1.7,1.7.6,2.5.8,4.2,1.4-.9,2.6-1.4,3.9-2.3,6.4-6.7-2.4-10.1-3.5-16.9-5.2.4-1.6.6-2.5,1.1-4.1.9,0,1.4,0,2.3,0,1-3.8,1.5-5.7,2.6-9.6-.8-.5-1.3-.7-2.1-1.1.4-1.7.6-2.5,1.1-4.1,7.5,1.9,11.3,3.1,18.7,5.7-.9,2.6-1.4,3.9-2.3,6.5Z"/>
  <g>
    <path class="st1" d="M74.9,78.9c1,.8,1.8,1.8,2.5,3,.6,1.2.9,2.5.9,3.9s-.4,3.3-1.3,4.7c-.9,1.4-2.2,2.5-3.9,3.3-1.7.8-3.7,1.2-6,1.2h-12.8v-34.2h12.3c2.3,0,4.3.4,5.9,1.2,1.6.8,2.9,1.8,3.7,3.1.8,1.3,1.2,2.8,1.2,4.4s-.5,3.7-1.6,5c-1.1,1.3-2.5,2.3-4.3,2.9,1.2.2,2.4.7,3.4,1.5ZM58.8,75.6h7.5c2.1,0,3.7-.5,4.9-1.5,1.1-1,1.7-2.3,1.7-4.1s-.6-3.1-1.7-4.1c-1.1-1-2.8-1.5-5-1.5h-7.4v11.1ZM71.9,89.7c1.2-1,1.9-2.5,1.9-4.4s-.7-3.4-2-4.5c-1.3-1.1-3.1-1.6-5.3-1.6h-7.8v12.1h7.9c2.2,0,4-.5,5.2-1.6Z"/>
    <path class="st1" d="M88.9,64.4v11.4h12.5v3.7h-12.5v11.8h13.9v3.7h-18.4v-34.3h18.4v3.7h-13.9Z"/>
    <path class="st1" d="M129.8,87.4h-14.9l-2.7,7.6h-4.7l12.4-34h5.2l12.3,34h-4.7l-2.7-7.6ZM128.6,83.8l-6.2-17.3-6.2,17.3h12.4Z"/>
    <path class="st1" d="M177.4,61v34h-4.5v-25.3l-11.3,25.3h-3.1l-11.3-25.4v25.4h-4.5v-34h4.8l12.6,28.1,12.6-28.1h4.8Z"/>
  </g>
</svg>